<?xml version="1.0" encoding="UTF-8"?>
<svg id="Camada_2" data-name="Camada 2" xmlns="http://www.w3.org/2000/svg" viewBox="0 0 644.9 92.73">
  <defs>
    <style>
      .cls-1 {
        fill: #707070;
      }

      .cls-2 {
        fill: #ff9800;
      }

      .cls-3 {
        fill: #459fed;
      }
    </style>
  </defs>
  <g id="logo_03" data-name="logo 03">
    <g>
      <g id="ingresse">
        <g id="brandmark">
          <g>
            <path class="cls-2" d="M26.25,27.56l16.42-16.42L33.41,1.89c-.51-.51-1.26-.71-1.95-.49-3.13.97-6.13,2.26-8.94,3.82-.69.38-.91,1.29-.43,1.93,3.47,4.55,3.13,11.08-1.03,15.24-4.16,4.16-10.69,4.5-15.24,1.03-.63-.48-1.54-.27-1.93.43-1.56,2.82-2.85,5.81-3.82,8.94-.21.69-.01,1.44.49,1.95l9.25,9.25,16.42-16.42Z"/>
            <path class="cls-2" d="M64.87,66.18l-16.42,16.42,9.25,9.25c.51.51,1.26.71,1.95.49,3.13-.97,6.13-2.26,8.94-3.82.69-.38.91-1.29.43-1.92-3.48-4.55-3.13-11.08,1.03-15.24s10.69-4.5,15.24-1.03c.63.48,1.54.27,1.92-.43,1.56-2.82,2.85-5.81,3.82-8.94.21-.69.01-1.44-.49-1.95l-9.25-9.25-16.42,16.42Z"/>
          </g>
          <path class="cls-3" d="M29.14,30.45L.58,59.02c-.51.51-.71,1.26-.49,1.95.97,3.13,2.26,6.13,3.82,8.94.38.69,1.29.91,1.93.43,4.55-3.47,11.08-3.13,15.24,1.03,4.16,4.16,4.5,10.69,1.03,15.24-.48.63-.27,1.54.43,1.93,2.82,1.56,5.81,2.85,8.94,3.82.69.21,1.44.01,1.95-.49l28.56-28.56,28.56-28.56c.51-.51.71-1.26.49-1.95-.97-3.13-2.26-6.13-3.82-8.94-.38-.69-1.29-.91-1.93-.43-4.55,3.47-11.08,3.13-15.24-1.03-4.16-4.16-4.5-10.69-1.03-15.24.48-.63.27-1.54-.43-1.93-2.82-1.56-5.81-2.85-8.94-3.82-.69-.21-1.44-.01-1.95.49l-28.56,28.56h0Z"/>
        </g>
        <g id="wordmark">
          <path class="cls-1" d="M134.95,72.54h-5.62V21.85h5.62v50.69Z"/>
          <path class="cls-1" d="M361.75,59.66c0-2.78-1.12-5.01-3.35-6.7-2.23-1.69-5.6-3.01-10.09-3.96-4.5-.95-7.99-2.04-10.47-3.28-2.48-1.23-4.33-2.74-5.53-4.52-1.2-1.78-1.8-3.93-1.8-6.46,0-4,1.67-7.3,5.01-9.91,3.34-2.61,7.62-3.91,12.84-3.91,5.65,0,10.19,1.4,13.61,4.19,3.42,2.8,5.13,6.44,5.13,10.94h-5.62c0-2.97-1.24-5.43-3.72-7.4-2.48-1.97-5.61-2.95-9.39-2.95s-6.64.82-8.88,2.46c-2.23,1.64-3.35,3.77-3.35,6.39s.93,4.49,2.79,5.88c1.86,1.39,5.25,2.66,10.16,3.82,4.92,1.16,8.6,2.39,11.06,3.7,2.45,1.31,4.27,2.89,5.46,4.73,1.19,1.84,1.78,4.08,1.78,6.7,0,4.28-1.73,7.7-5.18,10.26-3.45,2.56-7.96,3.84-13.52,3.84-5.9,0-10.69-1.43-14.36-4.29-3.67-2.86-5.5-6.47-5.5-10.85h5.62c.22,3.28,1.6,5.83,4.15,7.66,2.55,1.83,5.91,2.74,10.09,2.74,3.9,0,7.06-.86,9.46-2.58,2.4-1.72,3.61-3.89,3.61-6.51Z"/>
          <path class="cls-1" d="M409.02,59.66c0-2.78-1.12-5.01-3.35-6.7-2.23-1.69-5.6-3.01-10.09-3.96-4.5-.95-7.99-2.04-10.47-3.28-2.48-1.23-4.33-2.74-5.53-4.52-1.2-1.78-1.8-3.93-1.8-6.46,0-4,1.67-7.3,5.01-9.91,3.34-2.61,7.62-3.91,12.84-3.91,5.65,0,10.19,1.4,13.61,4.19,3.42,2.8,5.13,6.44,5.13,10.94h-5.62c0-2.97-1.24-5.43-3.72-7.4-2.48-1.97-5.61-2.95-9.39-2.95s-6.64.82-8.88,2.46c-2.23,1.64-3.35,3.77-3.35,6.39s.93,4.49,2.79,5.88c1.86,1.39,5.25,2.66,10.16,3.82,4.92,1.16,8.6,2.39,11.06,3.7,2.45,1.31,4.27,2.89,5.46,4.73,1.19,1.84,1.78,4.08,1.78,6.7,0,4.28-1.73,7.7-5.18,10.26-3.45,2.56-7.96,3.84-13.52,3.84-5.9,0-10.69-1.43-14.36-4.29-3.67-2.86-5.5-6.47-5.5-10.85h5.62c.22,3.28,1.6,5.83,4.15,7.66,2.55,1.83,5.91,2.74,10.09,2.74,3.9,0,7.06-.86,9.46-2.58,2.4-1.72,3.61-3.89,3.61-6.51Z"/>
          <path class="cls-1" d="M154.44,21.85v8.59c1.9-3.09,4.25-5.45,7.07-7.07,2.84-1.64,5.98-2.46,9.42-2.46,5.43,0,9.48,1.53,12.13,4.59,2.65,3.06,4,7.65,4.03,13.77v33.26h-5.57v-33.31c-.03-4.53-.99-7.9-2.88-10.12-1.89-2.22-4.91-3.33-9.06-3.33-3.47,0-6.53,1.09-9.21,3.25-.22.18-.44.37-.65.56-3.44,3.1-5.27,7.61-5.27,12.24v30.7h-5.57V21.85h5.57Z"/>
          <path class="cls-1" d="M238.87,21.85h-5.57v7.26c-3.59-5.46-8.83-8.19-15.7-8.19-6.03,0-10.8,2.32-14.31,6.96-3.51,4.64-5.27,10.92-5.27,18.85v.75c0,7.96,1.78,14.29,5.34,18.97,3.56,4.68,8.28,7.03,14.15,7.03,6.87,0,12.1-2.5,15.69-7.49v6.37c-.09,4.9-1.45,8.74-4.08,11.5-2.62,2.76-6.28,4.15-10.96,4.15-5.47,0-10.18-2.44-14.15-7.31l-3.14,3.37c1.84,2.62,4.36,4.72,7.57,6.3,3.2,1.58,6.57,2.37,10.09,2.37,6.25,0,11.2-1.9,14.85-5.71,3.65-3.81,5.48-8.98,5.48-15.51v-36.57h.01v-13.09ZM233.19,53.87c0,8.03-6.43,14.66-14.46,14.74-.07,0-.14,0-.21,0-4.72,0-8.37-1.87-10.96-5.6-2.59-3.73-3.89-8.83-3.89-15.29,0-7.21,1.31-12.67,3.93-16.37,2.62-3.7,6.29-5.55,11.01-5.55,3.47,0,6.43.85,8.9,2.55.21.14.41.29.6.44,3.27,2.53,5.06,6.53,5.06,10.67v14.41Z"/>
          <path class="cls-1" d="M252.17,21.85h5.57v8.06c2.97-6,7.73-8.99,14.29-8.99,1.56,0,2.79.2,3.7.61l-.14,5.11c-1.19-.22-2.45-.33-3.79-.33-3.5,0-6.46.98-8.88,2.93-1.01.81-1.9,1.78-2.66,2.9-1.71,2.49-2.51,5.5-2.51,8.52v31.89h-5.57V21.85Z"/>
          <path class="cls-1" d="M316.76,64.59c-3.72,2.83-8.04,4.24-12.95,4.24-5.27,0-9.63-1.91-13.08-5.74-3.45-3.83-5.17-8.62-5.17-14.39v-1.13h36.32v-4.61c0-6.93-1.79-12.36-5.36-16.28-3.58-3.92-8.5-5.88-14.77-5.88-4.01,0-7.71,1.11-11.08,3.32-3.37,2.21-6,5.23-7.88,9.06-1.88,3.83-2.82,8.14-2.82,12.94v2.63c0,4.7,1.01,8.96,3.03,12.77,2.02,3.81,4.85,6.77,8.47,8.89,3.62,2.12,7.67,3.18,12.16,3.18,6.78,0,12.19-1.98,16.22-5.92l-3.07-3.07ZM290.85,30.35c2.87-3.17,6.5-4.75,10.89-4.75s7.91,1.46,10.56,4.37c2.65,2.92,3.97,6.73,3.97,11.43v1.36h-30.58c.56-5.11,2.28-9.25,5.15-12.42Z"/>
          <path class="cls-1" d="M460.29,64.59c-3.72,2.83-8.04,4.24-12.95,4.24-5.27,0-9.63-1.91-13.08-5.74-3.45-3.83-5.17-8.62-5.17-14.39v-1.13h36.32v-4.61c0-6.93-1.79-12.36-5.36-16.28-3.58-3.92-8.5-5.88-14.77-5.88-4.01,0-7.71,1.11-11.08,3.32-3.37,2.21-6,5.23-7.88,9.06-1.88,3.83-2.82,8.14-2.82,12.94v2.63c0,4.7,1.01,8.96,3.03,12.77,2.02,3.81,4.85,6.77,8.47,8.89,3.62,2.12,7.67,3.18,12.16,3.18,6.78,0,12.19-1.98,16.22-5.92l-3.07-3.07ZM434.37,30.35c2.87-3.17,6.5-4.75,10.89-4.75s7.91,1.46,10.56,4.37c2.65,2.92,3.97,6.73,3.97,11.43v1.36h-30.58c.56-5.11,2.28-9.25,5.15-12.42Z"/>
          <path class="cls-1" d="M134.95,12h-5.62v-5.73h5.62v5.73Z"/>
        </g>
      </g>
      <g>
        <path class="cls-1" d="M508.5,70.93c4.63,0,8.45-1.23,11.45-3.68,3.01-2.46,4.65-5.86,4.94-10.2h2.55c-.25,4.94-2.16,8.92-5.71,11.92-3.56,3.01-7.97,4.51-13.22,4.51-6.39,0-11.47-2.31-15.23-6.94-3.76-4.63-5.64-10.91-5.64-18.84v-1.7c0-7.74,1.88-13.93,5.64-18.56,3.76-4.63,8.81-6.94,15.13-6.94,5.42,0,9.89,1.62,13.41,4.86,3.53,3.24,5.4,7.56,5.62,12.94h-2.55c-.22-4.6-1.83-8.29-4.84-11.07-3.01-2.79-6.89-4.18-11.64-4.18-5.7,0-10.16,2.05-13.39,6.16-3.23,4.11-4.84,9.82-4.84,17.12v1.65c0,7.15,1.63,12.76,4.89,16.84,3.26,4.08,7.74,6.12,13.44,6.12Z"/>
        <path class="cls-1" d="M540.98,72.54h-2.55V0h2.55v72.54Z"/>
        <path class="cls-1" d="M589.56,72.54v-8.26c-1.51,2.83-3.72,5.08-6.61,6.73s-6.56,2.48-11,2.48c-5.57,0-9.75-1.63-12.54-4.89-2.79-3.26-4.21-8-4.27-14.24V21.44h2.55v33.01c.06,5.42,1.29,9.52,3.68,12.3,2.39,2.79,5.89,4.18,10.48,4.18,4.88,0,8.85-1.15,11.9-3.45,3.05-2.3,4.99-5.67,5.81-10.11V21.44h2.6v51.1h-2.6Z"/>
        <path class="cls-1" d="M644.9,47.46c0,7.97-1.72,14.29-5.15,18.98-3.43,4.69-8.11,7.04-14.03,7.04-3.84,0-7.27-.8-10.3-2.38s-5.4-3.8-7.13-6.64v8.08h-2.55V0h2.55v30.74c1.79-3.37,4.16-5.92,7.11-7.65,2.94-1.73,6.35-2.6,10.22-2.6,5.98,0,10.69,2.29,14.12,6.87,3.43,4.58,5.15,11.01,5.15,19.29v.8ZM642.26,46.47c0-7.34-1.46-13.07-4.37-17.21-2.91-4.14-6.98-6.21-12.21-6.21-4.28,0-7.91,1.1-10.88,3.31-2.98,2.2-5.14,5.48-6.49,9.82v23.42c1.35,3.62,3.52,6.42,6.49,8.38,2.97,1.97,6.63,2.95,10.98,2.95,5.26,0,9.32-2.09,12.18-6.28,2.87-4.19,4.3-10.25,4.3-18.18Z"/>
      </g>
    </g>
  </g>
</svg>